<svg xmlns="http://www.w3.org/2000/svg" xmlns:xlink="http://www.w3.org/1999/xlink" viewBox="0 0 600 400"><defs><style>.a{fill:url(#a);}.b{clip-path:url(#c);}.c{fill:#fffeec;}.d{fill:#dfe7f0;}.e{fill:#b1d2ec;}.f{fill:url(#d);}.g{fill:url(#e);}.h{fill:url(#f);}.i{fill:url(#g);}.j{fill:url(#h);}.k{fill:url(#i);}.l{fill:url(#j);}.m{fill:#8ab3d7;}.n{fill:#74a8c6;}.o{fill:#3d85a1;}.p{fill:#1f506e;}</style><linearGradient id="a" x1="300" y1="171" x2="300" y2="-3.67" gradientUnits="userSpaceOnUse"><stop offset="0" stop-color="#cbe9f8"/><stop offset="0.62" stop-color="#9cc5ea"/><stop offset="1" stop-color="#8ab3d7"/></linearGradient><clipPath id="c"><rect class="a" width="600" height="399.5"/></clipPath><linearGradient id="d" x1="363.41" y1="203.67" x2="363.41" y2="134.33" gradientUnits="userSpaceOnUse"><stop offset="0" stop-color="#b1d2ec"/><stop offset="1" stop-color="#fbe6ca"/></linearGradient><linearGradient id="e" x1="497.67" y1="203.67" x2="497.67" y2="134.33" xlink:href="#d"/><linearGradient id="f" x1="580.33" y1="203.67" x2="580.33" y2="134.33" xlink:href="#d"/><linearGradient id="g" x1="199.92" y1="203.67" x2="199.92" y2="134.33" xlink:href="#d"/><linearGradient id="h" x1="161.95" y1="203.67" x2="161.95" y2="134.33" xlink:href="#d"/><linearGradient id="i" x1="106.94" y1="203.67" x2="106.94" y2="134.33" xlink:href="#d"/><linearGradient id="j" x1="63.88" y1="203.67" x2="63.88" y2="134.33" xlink:href="#d"/></defs><title>hero-bg</title><rect class="a" width="600" height="399.5"/><g class="b"><circle class="c" cy="125.7" r="80.8" transform="translate(-124.08 105.57) rotate(-80.78)"/><circle class="c" cx="93.75" cy="191.56" r="80.8" transform="translate(-107.99 122.39) rotate(-45)"/><circle class="c" cx="258.37" cy="221.59" r="80.8" transform="translate(-81.02 247.6) rotate(-45)"/><circle class="c" cx="380.35" cy="220.42" r="80.8" transform="translate(-44.46 333.51) rotate(-45)"/><circle class="c" cx="441.63" cy="183.26" r="56"/><circle class="c" cx="588.7" cy="149.67" r="80.8" transform="translate(66.59 460.11) rotate(-45)"/><circle class="c" cx="534.57" cy="195.54" r="80.8" transform="translate(18.3 435.27) rotate(-45)"/><circle class="c" cx="186.41" cy="212.23" r="80.8" transform="translate(-95.47 193.97) rotate(-45)"/><circle class="c" cx="77.12" cy="133.44" r="48.14"/><circle class="c" cx="156.7" cy="167.31" r="48.14" transform="translate(-33.25 295.64) rotate(-80.92)"/><circle class="c" cx="493.35" cy="167.31" r="48.14" transform="translate(244.27 624.86) rotate(-80.17)"/><circle class="c" cx="67.85" cy="85.31" r="30.49" transform="translate(-40.45 72.96) rotate(-45)"/><circle class="c" cx="186.41" cy="140.8" r="30.49" transform="translate(6.08 289.31) rotate(-76.54)"/><circle class="c" cx="521.62" cy="114.74" r="30.49" transform="translate(291.57 596.75) rotate(-76.89)"/><circle class="c" cx="597.51" cy="98.12" r="48.34" transform="translate(367.42 658.21) rotate(-76.99)"/></g><polygon class="d" points="562.6 176.25 516.7 155.39 501.97 162.09 448.04 137.58 427.41 146.96 421.37 144.21 380.59 162.74 371.37 158.55 320.61 181.62 281.37 163.78 270.06 168.92 224.7 148.31 204.37 157.55 184.03 148.31 180.5 149.91 153.37 137.58 93.92 164.6 73.67 155.39 69.14 157.45 55.61 151.3 37.06 159.72 0 142.88 0 176.56 0 184.29 0 190.55 0 399.5 600 399.5 600 223.97 600 159.26 562.6 176.25"/><polygon class="e" points="560.67 161.36 518.67 180.17 476.67 161.36 441.82 176.97 421.76 167.98 414.16 171.38 353.56 144.25 345.76 147.74 296.56 125.7 206.16 166.18 198.22 162.62 177.57 171.87 153.11 160.91 113.43 178.69 100.44 172.87 91.42 176.91 36.33 152.25 8.49 164.72 0 160.91 0 168.52 0 193.4 0 218.33 0 399.5 600 399.5 600 200.27 600 178.98 560.67 161.36"/><polygon class="f" points="441.82 176.97 421.76 167.98 414.16 171.38 353.56 144.25 345.76 147.74 332.33 155.67 336.77 143.71 296.56 125.7 309.67 147.67 296.56 147.67 300 172.25 285 179.67 332.33 193 372.33 209.67 372.33 200 345 179.67 346.33 167.69 355 176.33 403.67 194.33 416.33 209.67 413 188.33 441.82 176.97"/><polygon class="g" points="476.67 161.36 481.67 174.33 479.17 183 494.33 189.67 518.67 180.17 476.67 161.36"/><polygon class="h" points="560.67 161.36 571.67 175.51 579 180.33 569.83 195 600 200.27 600 178.98 560.67 161.36"/><polygon class="i" points="198.22 162.62 193.67 175.51 206.16 166.18 198.22 162.62"/><polygon class="j" points="153.11 160.91 146.33 169.07 153.11 175.51 149.72 185.67 177.57 171.87 153.11 160.91"/><polygon class="k" points="100.44 172.87 103.67 180.82 100.44 185.67 113.43 178.69 100.44 172.87"/><polygon class="l" points="36.33 152.25 43.67 160.91 40 169.07 48.33 172.87 36.33 189.67 60.33 180.82 69.67 185.67 91.42 176.91 36.33 152.25"/><polygon class="m" points="562.94 209.72 544.39 201.3 530.86 207.45 526.33 205.39 517.67 209.33 497.67 200 485.97 205.46 446.63 187.58 419.5 199.91 415.96 198.31 395.63 207.55 375.3 198.31 329.94 218.92 318.63 213.78 302.49 221.12 270.39 206.15 247.18 216.98 228.63 208.55 219.41 212.74 178.63 194.21 172.59 196.96 151.97 187.58 98.03 212.09 83.3 205.39 54.87 218.31 36.33 209.67 18.85 217.82 0 209.26 0 223.97 0 226.61 0 255.36 0 399.5 600 399.5 600 240.55 600 234.29 600 226.56 600 192.88 562.94 209.72"/><polygon class="m" points="257.92 216.67 255.4 211.28 256.71 211.28 254.59 206.72 255.7 206.72 253.79 202.63 254.79 202.63 252.46 197.62 250.12 202.63 251.13 202.63 249.22 206.72 250.33 206.72 248.21 211.28 249.52 211.28 247 216.67 257.92 216.67"/><polygon class="m" points="333.67 219.6 331.57 215.11 332.66 215.11 330.89 211.31 331.81 211.31 330.22 207.9 331.06 207.9 329.12 203.73 327.17 207.9 328.01 207.9 326.42 211.31 327.35 211.31 325.57 215.11 326.66 215.11 324.57 219.6 333.67 219.6"/><polygon class="m" points="389.45 211.67 387.36 207.17 388.44 207.17 386.67 203.37 387.6 203.37 386.01 199.96 386.85 199.96 384.9 195.79 382.95 199.96 383.79 199.96 382.2 203.37 383.13 203.37 381.36 207.17 382.45 207.17 380.35 211.67 389.45 211.67"/><polygon class="m" points="398.55 215.88 396.45 211.38 397.54 211.38 395.77 207.58 396.7 207.58 395.11 204.17 395.95 204.17 394 200 392.06 204.17 392.89 204.17 391.3 207.58 392.23 207.58 390.46 211.38 391.55 211.38 389.45 215.88 398.55 215.88"/><polygon class="m" points="540.82 215.08 538.73 210.59 539.82 210.59 538.04 206.79 538.97 206.79 537.38 203.38 538.22 203.38 536.27 199.21 534.33 203.38 535.17 203.38 533.58 206.79 534.5 206.79 532.73 210.59 533.82 210.59 531.72 215.08 540.82 215.08"/><polygon class="m" points="577.78 209.52 575.68 205.02 576.77 205.02 575 201.23 575.92 201.23 574.33 197.82 575.17 197.82 573.23 193.64 571.28 197.82 572.12 197.82 570.53 201.23 571.45 201.23 569.68 205.02 570.77 205.02 568.68 209.52 577.78 209.52"/><polygon class="m" points="596.38 205.8 594.29 201.3 595.38 201.3 593.6 197.5 594.53 197.5 592.94 194.09 593.78 194.09 591.83 189.92 589.89 194.09 590.73 194.09 589.13 197.5 590.06 197.5 588.29 201.3 589.38 201.3 587.28 205.8 596.38 205.8"/><polygon class="m" points="271 214.24 268.45 208.77 269.78 208.77 267.5 203.87 268.7 203.87 265.9 197.86 263.1 203.87 264.31 203.87 262.02 208.77 263.35 208.77 260.8 214.24 271 214.24"/><polygon class="m" points="201.67 207.94 199.12 202.47 200.45 202.47 198.16 197.57 199.37 197.57 196.57 191.56 193.76 197.57 194.97 197.57 192.68 202.47 194.02 202.47 191.47 207.94 201.67 207.94"/><polygon class="m" points="312.84 228.61 310.29 223.14 311.62 223.14 309.33 218.23 310.54 218.23 307.74 212.23 304.94 218.23 306.14 218.23 303.86 223.14 305.19 223.14 302.64 228.61 312.84 228.61"/><polygon class="m" points="350.17 217.86 347.62 212.39 348.95 212.39 346.67 207.48 347.87 207.48 345.07 201.47 342.27 207.48 343.48 207.48 341.19 212.39 342.52 212.39 339.97 217.86 350.17 217.86"/><polygon class="m" points="361.67 211.92 359.12 206.45 360.46 206.45 358.17 201.54 359.38 201.54 356.57 195.54 353.77 201.54 354.98 201.54 352.69 206.45 354.02 206.45 351.47 211.92 361.67 211.92"/><polygon class="m" points="535.89 211.92 533.34 206.45 534.67 206.45 532.39 201.54 533.59 201.54 530.79 195.54 527.99 201.54 529.2 201.54 526.91 206.45 528.24 206.45 525.69 211.92 535.89 211.92"/><polygon class="m" points="558.5 211.92 555.96 206.45 557.29 206.45 555 201.54 556.21 201.54 553.4 195.54 550.6 201.54 551.81 201.54 549.52 206.45 550.86 206.45 548.31 211.92 558.5 211.92"/><polygon class="m" points="585.43 211.92 582.88 206.45 584.22 206.45 581.93 201.54 583.13 201.54 580.33 195.54 577.53 201.54 578.74 201.54 576.45 206.45 577.78 206.45 575.23 211.92 585.43 211.92"/><polygon class="m" points="169.67 200.55 167.12 195.09 168.45 195.09 166.16 190.18 167.37 190.18 164.57 184.17 161.76 190.18 162.97 190.18 160.68 195.09 162.02 195.09 159.47 200.55 169.67 200.55"/><polygon class="m" points="138.89 198.24 136.7 193.54 137.85 193.54 135.88 189.33 136.92 189.33 134.51 184.17 132.11 189.33 133.14 189.33 131.18 193.54 132.32 193.54 130.13 198.24 138.89 198.24"/><polygon class="m" points="407.31 208.51 405.12 203.81 406.26 203.81 404.3 199.6 405.34 199.6 402.93 194.44 400.52 199.6 401.56 199.6 399.6 203.81 400.74 203.81 398.55 208.51 407.31 208.51"/><polygon class="m" points="530.07 210.76 527.88 206.07 529.03 206.07 527.06 201.85 528.1 201.85 525.69 196.69 523.29 201.85 524.32 201.85 522.36 206.07 523.5 206.07 521.31 210.76 530.07 210.76"/><polygon class="m" points="573.05 212.83 570.87 208.13 572.01 208.13 570.04 203.92 571.08 203.92 568.68 198.76 566.27 203.92 567.31 203.92 565.34 208.13 566.49 208.13 564.3 212.83 573.05 212.83"/><polygon class="m" points="113.51 212.6 111.33 207.9 112.47 207.9 110.5 203.69 111.54 203.69 109.14 198.53 106.73 203.69 107.77 203.69 105.8 207.9 106.95 207.9 104.76 212.6 113.51 212.6"/><polygon class="m" points="130.6 202.56 127.82 196.6 129.28 196.6 126.78 191.24 128.09 191.24 125.03 184.68 121.98 191.24 123.29 191.24 120.8 196.6 122.25 196.6 119.47 202.56 130.6 202.56"/><polygon class="m" points="177.57 197.86 175.03 192.39 176.36 192.39 174.07 187.48 175.28 187.48 172.48 181.48 169.67 187.48 170.88 187.48 168.59 192.39 169.93 192.39 167.38 197.86 177.57 197.86"/><polygon class="n" points="574.89 224.48 554.01 214.74 545.3 218.81 493.14 194.48 487.06 197.32 453.81 181.82 354.67 228.06 344.71 223.41 334.9 227.98 317.95 220.08 312.5 222.62 295.61 214.74 274.18 224.74 226.67 202.58 221.18 205.14 206.16 198.14 172.62 213.78 161.95 208.8 137.87 220.04 100.44 202.58 90.84 207.06 63.88 194.48 39.97 205.63 0 186.99 0 224.27 0 249.43 0 265.83 0 274.79 0 286.74 0 400.5 600 400.5 600 314.93 600 303.39 600 254.74 600 244.32 600 236.19 600 212.77 574.89 224.48"/><polygon class="n" points="421.64 204.99 424.51 198.84 423.02 198.84 425.44 193.64 424.18 193.64 426.35 188.97 425.2 188.97 427.87 183.26 430.53 188.97 429.39 188.97 431.56 193.64 430.29 193.64 432.72 198.84 431.23 198.84 434.1 204.99 421.64 204.99"/><polygon class="n" points="462.23 198.45 465.1 192.29 463.61 192.29 466.03 187.09 464.76 187.09 466.94 182.43 465.79 182.43 468.45 176.72 471.12 182.43 469.97 182.43 472.15 187.09 470.88 187.09 473.3 192.29 471.81 192.29 474.68 198.45 462.23 198.45"/><polygon class="n" points="441.63 192.34 444.5 186.19 443.01 186.19 445.43 180.99 444.16 180.99 446.34 176.32 445.19 176.32 447.86 170.61 450.52 176.32 449.37 176.32 451.55 180.99 450.28 180.99 452.71 186.19 451.21 186.19 454.08 192.34 441.63 192.34"/><polygon class="n" points="556.21 226.74 559.08 220.59 557.58 220.59 560.01 215.39 558.74 215.39 560.92 210.72 559.77 210.72 562.43 205.01 565.1 210.72 563.95 210.72 566.13 215.39 564.86 215.39 567.28 220.59 565.79 220.59 568.66 226.74 556.21 226.74"/><polygon class="n" points="279.81 223.3 282.2 218.17 280.96 218.17 282.98 213.84 281.92 213.84 283.74 209.94 282.78 209.94 285 205.18 287.22 209.94 286.26 209.94 288.08 213.84 287.02 213.84 289.04 218.17 287.8 218.17 290.19 223.3 279.81 223.3"/><polygon class="n" points="286.63 220.72 289.02 215.59 287.78 215.59 289.8 211.26 288.74 211.26 290.55 207.37 289.6 207.37 291.82 202.61 294.04 207.37 293.08 207.37 294.89 211.26 293.84 211.26 295.86 215.59 294.62 215.59 297.01 220.72 286.63 220.72"/><polygon class="n" points="316.58 224.73 318.97 219.6 317.73 219.6 319.75 215.27 318.69 215.27 320.5 211.38 319.55 211.38 321.77 206.62 323.99 211.38 323.03 211.38 324.85 215.27 323.79 215.27 325.81 219.6 324.57 219.6 326.96 224.73 316.58 224.73"/><polygon class="n" points="93.69 211.09 96.08 205.96 94.83 205.96 96.86 201.63 95.8 201.63 97.61 197.74 96.66 197.74 98.88 192.98 101.1 197.74 100.14 197.74 101.95 201.63 100.9 201.63 102.92 205.96 101.67 205.96 104.07 211.09 93.69 211.09"/><polygon class="n" points="51.53 205.89 53.92 200.76 52.68 200.76 54.7 196.42 53.64 196.42 55.45 192.53 54.5 192.53 56.72 187.77 58.94 192.53 57.98 192.53 59.8 196.42 58.74 196.42 60.76 200.76 59.52 200.76 61.91 205.89 51.53 205.89"/><polygon class="n" points="23.8 202.68 26.19 197.55 24.95 197.55 26.97 193.22 25.91 193.22 27.72 189.33 26.77 189.33 28.99 184.57 31.21 189.33 30.25 189.33 32.06 193.22 31.01 193.22 33.03 197.55 31.79 197.55 34.18 202.68 23.8 202.68"/><polygon class="n" points="404.71 207.2 407.62 200.97 406.1 200.97 408.71 195.37 407.33 195.37 410.53 188.51 413.73 195.37 412.35 195.37 414.96 200.97 413.44 200.97 416.35 207.2 404.71 207.2"/><polygon class="n" points="503.6 206.18 506.51 199.94 504.99 199.94 507.6 194.34 506.22 194.34 509.42 187.48 512.61 194.34 511.23 194.34 513.85 199.94 512.32 199.94 515.23 206.18 503.6 206.18"/><polygon class="n" points="357.59 230.92 360.5 224.68 358.98 224.68 361.59 219.08 360.21 219.08 363.41 212.23 366.61 219.08 365.23 219.08 367.84 224.68 366.32 224.68 369.23 230.92 357.59 230.92"/><polygon class="n" points="376.49 221.01 379.39 214.77 377.87 214.77 380.49 209.18 379.11 209.18 382.3 202.32 385.5 209.18 384.12 209.18 386.74 214.77 385.21 214.77 388.12 221.01 376.49 221.01"/><polygon class="n" points="334.15 232.26 337.06 226.02 335.54 226.02 338.15 220.42 336.78 220.42 339.97 213.57 343.17 220.42 341.79 220.42 344.4 226.02 342.88 226.02 345.79 232.26 334.15 232.26"/><polygon class="n" points="297.45 225.22 300.36 218.98 298.84 218.98 301.45 213.38 300.07 213.38 303.27 206.53 306.46 213.38 305.09 213.38 307.7 218.98 306.18 218.98 309.09 225.22 297.45 225.22"/><polygon class="n" points="101.12 214.91 104.03 208.67 102.5 208.67 105.12 203.07 103.74 203.07 106.94 196.22 110.13 203.07 108.75 203.07 111.37 208.67 109.84 208.67 112.75 214.91 101.12 214.91"/><polygon class="n" points="43 206.03 45.91 199.8 44.39 199.8 47 194.2 45.62 194.2 48.82 187.34 52.02 194.2 50.64 194.2 53.25 199.8 51.73 199.8 54.64 206.03 43 206.03"/><polygon class="n" points="3.08 194.41 5.99 188.17 4.47 188.17 7.08 182.57 5.71 182.57 8.9 175.72 12.1 182.57 10.72 182.57 13.33 188.17 11.81 188.17 14.72 194.41 3.08 194.41"/><polygon class="n" points="542.49 221.57 545.4 215.33 543.88 215.33 546.49 209.74 545.11 209.74 548.31 202.88 551.5 209.74 550.13 209.74 552.74 215.33 551.22 215.33 554.12 221.57 542.49 221.57"/><polygon class="n" points="520.7 214.2 523.2 208.84 521.89 208.84 524.13 204.04 522.95 204.04 525.69 198.15 528.44 204.04 527.25 204.04 529.5 208.84 528.19 208.84 530.69 214.2 520.7 214.2"/><polygon class="n" points="229.42 208.58 231.91 203.22 230.61 203.22 232.85 198.41 231.67 198.41 234.41 192.53 237.16 198.41 235.97 198.41 238.22 203.22 236.91 203.22 239.41 208.58 229.42 208.58"/><polygon class="n" points="181.67 210.75 184.17 205.4 182.87 205.4 185.11 200.59 183.92 200.59 186.67 194.7 189.41 200.59 188.23 200.59 190.47 205.4 189.17 205.4 191.66 210.75 181.67 210.75"/><polygon class="n" points="142.82 221.59 145.32 216.24 144.02 216.24 146.26 211.43 145.08 211.43 147.82 205.54 150.57 211.43 149.38 211.43 151.63 216.24 150.32 216.24 152.82 221.59 142.82 221.59"/><polygon class="n" points="79.36 207.23 81.86 201.88 80.55 201.88 82.8 197.07 81.61 197.07 84.36 191.18 87.1 197.07 85.92 197.07 88.16 201.88 86.86 201.88 89.35 207.23 79.36 207.23"/><polygon class="n" points="116.14 216.36 118.64 211 117.33 211 119.57 206.2 118.39 206.2 121.14 200.31 123.88 206.2 122.7 206.2 124.94 211 123.63 211 126.13 216.36 116.14 216.36"/><polygon class="n" points="588.7 218.83 591.2 213.47 589.89 213.47 592.14 208.66 590.95 208.66 593.7 202.78 596.44 208.66 595.26 208.66 597.5 213.47 596.2 213.47 598.7 218.83 588.7 218.83"/><polygon class="n" points="346.97 233.12 350.15 226.31 348.49 226.31 351.34 220.19 349.83 220.19 353.32 212.71 356.81 220.19 355.31 220.19 358.16 226.31 356.5 226.31 359.68 233.12 346.97 233.12"/><polygon class="n" points="493.35 199.94 496.26 193.7 494.74 193.7 497.35 188.1 495.97 188.1 499.17 181.25 502.36 188.1 500.99 188.1 503.6 193.7 502.08 193.7 504.99 199.94 493.35 199.94"/><polygon class="o" points="544.69 246.56 526.04 237.86 516.36 242.37 476.67 223.86 455.07 233.93 441.82 227.75 403.41 245.67 395.24 241.86 382.83 247.65 378.18 245.48 341.7 262.49 329.06 256.6 323.85 259.03 309.91 252.53 300.98 256.69 230.58 223.86 206.94 234.88 170.58 217.92 162.99 221.46 139.85 210.67 103.74 227.51 83.18 217.92 77.06 220.77 55.39 210.67 47.32 214.43 0 192.36 0 236.5 0 256.71 0 263.14 0 270.99 0 276.7 0 400.5 600 400.5 600 300.15 600 295.23 600 272.35 600 220.76 544.69 246.56"/><polygon class="o" points="422.81 236.65 427.84 225.88 425.23 225.88 429.48 216.78 427.25 216.78 431.06 208.6 429.06 208.6 433.72 198.6 438.38 208.6 436.38 208.6 440.19 216.78 437.96 216.78 442.21 225.88 439.6 225.88 444.63 236.65 422.81 236.65"/><polygon class="o" points="331.29 272.36 336.31 261.59 333.7 261.59 337.95 252.49 335.73 252.49 339.54 244.31 337.53 244.31 342.19 234.31 346.86 244.31 344.85 244.31 348.66 252.49 346.44 252.49 350.68 261.59 348.07 261.59 353.1 272.36 331.29 272.36"/><polygon class="o" points="258.84 257.08 263.87 246.31 261.26 246.31 265.5 237.21 263.28 237.21 267.09 229.04 265.08 229.04 269.75 219.03 274.41 229.04 272.4 229.04 276.21 237.21 273.99 237.21 278.24 246.31 275.63 246.31 280.65 257.08 258.84 257.08"/><polygon class="o" points="352.51 266.99 357.53 256.21 354.92 256.21 359.17 247.11 356.95 247.11 360.76 238.94 358.75 238.94 363.41 228.94 368.08 238.94 366.07 238.94 369.88 247.11 367.66 247.11 371.9 256.21 369.29 256.21 374.32 266.99 352.51 266.99"/><polygon class="o" points="199.31 245.6 203.31 237.02 201.23 237.02 204.61 229.77 202.85 229.77 205.88 223.27 204.28 223.27 207.99 215.31 211.71 223.27 210.11 223.27 213.14 229.77 211.37 229.77 214.75 237.02 212.67 237.02 216.67 245.6 199.31 245.6"/><polygon class="o" points="104.75 238.06 108.75 229.48 106.67 229.48 110.05 222.24 108.28 222.24 111.31 215.73 109.71 215.73 113.43 207.77 117.14 215.73 115.54 215.73 118.57 222.24 116.81 222.24 120.19 229.48 118.11 229.48 122.11 238.06 104.75 238.06"/><polygon class="o" points="67.84 233.36 73.81 220.56 70.71 220.56 75.75 209.75 73.12 209.75 77.64 200.05 75.26 200.05 80.8 188.17 86.34 200.05 83.95 200.05 88.47 209.75 85.84 209.75 90.88 220.56 87.78 220.56 93.75 233.36 67.84 233.36"/><polygon class="o" points="3.08 218.13 9.05 205.34 5.95 205.34 10.99 194.53 8.36 194.53 12.88 184.82 10.5 184.82 16.04 172.94 21.57 184.82 19.19 184.82 23.71 194.53 21.08 194.53 26.12 205.34 23.02 205.34 28.99 218.13 3.08 218.13"/><polygon class="o" points="242.66 246.38 248.63 233.59 245.53 233.59 250.57 222.78 247.94 222.78 252.46 213.07 250.07 213.07 255.62 201.2 261.15 213.07 258.77 213.07 263.29 222.78 260.66 222.78 265.7 233.59 262.6 233.59 268.56 246.38 242.66 246.38"/><polygon class="o" points="164.09 258.45 172.25 240.96 168.02 240.96 174.91 226.19 171.3 226.19 177.49 212.93 174.22 212.93 181.8 196.69 189.37 212.93 186.11 212.93 192.29 226.19 188.69 226.19 195.58 240.96 191.34 240.96 199.5 258.45 164.09 258.45"/><polygon class="o" points="306.87 288.9 315.02 271.41 310.79 271.41 317.68 256.63 314.07 256.63 320.26 243.37 317 243.37 324.57 227.14 332.14 243.37 328.88 243.37 335.06 256.63 331.46 256.63 338.35 271.41 334.11 271.41 342.27 288.9 306.87 288.9"/><polygon class="o" points="392.83 274.67 400.99 257.19 396.75 257.19 403.64 242.41 400.04 242.41 406.22 229.15 402.96 229.15 410.53 212.91 418.1 229.15 414.84 229.15 421.02 242.41 417.42 242.41 424.31 257.19 420.07 257.19 428.23 274.67 392.83 274.67"/><polygon class="o" points="429.73 266.53 437.89 249.04 433.65 249.04 440.54 234.27 436.94 234.27 443.12 221.01 439.86 221.01 447.43 204.77 455 221.01 451.74 221.01 457.93 234.27 454.32 234.27 461.21 249.04 456.98 249.04 465.13 266.53 429.73 266.53"/><polygon class="o" points="224.09 266.53 232.25 249.04 228.01 249.04 234.9 234.27 231.29 234.27 237.48 221.01 234.22 221.01 241.79 204.77 249.36 221.01 246.1 221.01 252.28 234.27 248.68 234.27 255.57 249.04 251.34 249.04 259.49 266.53 224.09 266.53"/><polygon class="o" points="308.9 263.11 312.9 254.53 310.82 254.53 314.2 247.28 312.44 247.28 315.47 240.78 313.87 240.78 317.58 232.82 321.3 240.78 319.7 240.78 322.73 247.28 320.96 247.28 324.34 254.53 322.26 254.53 326.26 263.11 308.9 263.11"/><polygon class="o" points="286.79 263.11 290.79 254.53 288.71 254.53 292.09 247.28 290.32 247.28 293.35 240.78 291.75 240.78 295.47 232.82 299.18 240.78 297.58 240.78 300.61 247.28 298.85 247.28 302.23 254.53 300.15 254.53 304.15 263.11 286.79 263.11"/><polygon class="o" points="224.43 259.66 228.43 251.08 226.35 251.08 229.73 243.83 227.96 243.83 231 237.33 229.4 237.33 233.11 229.37 236.82 237.33 235.22 237.33 238.26 243.83 236.49 243.83 239.87 251.08 237.79 251.08 241.79 259.66 224.43 259.66"/><polygon class="o" points="206.16 244.51 210.16 235.94 208.09 235.94 211.47 228.69 209.7 228.69 212.73 222.19 211.13 222.19 214.85 214.22 218.56 222.19 216.96 222.19 219.99 228.69 218.22 228.69 221.6 235.94 219.53 235.94 223.53 244.51 206.16 244.51"/><polygon class="o" points="155.89 234.75 159.89 226.17 157.81 226.17 161.19 218.93 159.42 218.93 162.45 212.42 160.85 212.42 164.57 204.46 168.28 212.42 166.68 212.42 169.71 218.93 167.95 218.93 171.33 226.17 169.25 226.17 173.25 234.75 155.89 234.75"/><polygon class="o" points="363.41 260.29 367.41 251.71 365.33 251.71 368.71 244.47 366.95 244.47 369.98 237.96 368.38 237.96 372.09 230 375.81 237.96 374.21 237.96 377.24 244.47 375.47 244.47 378.85 251.71 376.77 251.71 380.77 260.29 363.41 260.29"/><polygon class="o" points="534.57 249.79 539.5 239.2 536.94 239.2 541.11 230.26 538.93 230.26 542.67 222.23 540.7 222.23 545.28 212.4 549.87 222.23 547.89 222.23 551.64 230.26 549.46 230.26 553.63 239.2 551.06 239.2 556 249.79 534.57 249.79"/><polygon class="o" points="407.31 243.79 412.82 231.97 409.96 231.97 414.62 221.98 412.18 221.98 416.36 213.01 414.16 213.01 419.28 202.03 424.4 213.01 422.19 213.01 426.37 221.98 423.94 221.98 428.6 231.97 425.73 231.97 431.25 243.79 407.31 243.79"/><polygon class="o" points="390.96 267.26 396.48 255.44 393.61 255.44 398.27 245.45 395.83 245.45 400.02 236.48 397.81 236.48 402.93 225.5 408.05 236.48 405.84 236.48 410.03 245.45 407.59 245.45 412.25 255.44 409.38 255.44 414.9 267.26 390.96 267.26"/><polygon class="o" points="267.88 267.26 273.4 255.44 270.53 255.44 275.19 245.45 272.75 245.45 276.94 236.48 274.73 236.48 279.85 225.5 284.97 236.48 282.76 236.48 286.94 245.45 284.51 245.45 289.17 255.44 286.3 255.44 291.82 267.26 267.88 267.26"/><polygon class="o" points="340.54 277.96 346.05 266.14 343.19 266.14 347.85 256.15 345.41 256.15 349.59 247.18 347.39 247.18 352.51 236.2 357.63 247.18 355.42 247.18 359.6 256.15 357.17 256.15 361.82 266.14 358.96 266.14 364.48 277.96 340.54 277.96"/><polygon class="o" points="325.11 283.99 330.63 272.16 327.76 272.16 332.42 262.17 329.98 262.17 334.17 253.21 331.96 253.21 337.08 242.23 342.2 253.21 339.99 253.21 344.17 262.17 341.74 262.17 346.4 272.16 343.53 272.16 349.05 283.99 325.11 283.99"/><polygon class="o" points="319.32 277.96 324.83 266.14 321.97 266.14 326.63 256.15 324.19 256.15 328.37 247.18 326.17 247.18 331.29 236.2 336.41 247.18 334.2 247.18 338.38 256.15 335.95 256.15 340.61 266.14 337.74 266.14 343.25 277.96 319.32 277.96"/><polygon class="o" points="295.8 278.9 301.32 267.07 298.45 267.07 303.11 257.08 300.67 257.08 304.86 248.12 302.65 248.12 307.77 237.14 312.89 248.12 310.68 248.12 314.87 257.08 312.43 257.08 317.09 267.07 314.22 267.07 319.74 278.9 295.8 278.9"/><polygon class="o" points="274.82 272.83 280.33 261 277.47 261 282.13 251.01 279.69 251.01 283.87 242.05 281.67 242.05 286.79 231.07 291.9 242.05 289.7 242.05 293.88 251.01 291.44 251.01 296.1 261 293.24 261 298.75 272.83 274.82 272.83"/><polygon class="o" points="370.34 270.67 375.85 258.85 372.99 258.85 377.65 248.86 375.21 248.86 379.39 239.89 377.19 239.89 382.3 228.91 387.42 239.89 385.22 239.89 389.4 248.86 386.96 248.86 391.62 258.85 388.76 258.85 394.27 270.67 370.34 270.67"/><polygon class="o" points="382.3 253.34 385.84 245.77 383.84 245.77 387.51 237.89 385.61 237.89 388.71 231.24 387.09 231.24 389.87 225.27 388.4 225.27 391.81 217.97 395.22 225.27 393.75 225.27 396.54 231.24 394.91 231.24 398.01 237.89 396.11 237.89 399.78 245.77 397.79 245.77 401.32 253.34 382.3 253.34"/><polygon class="o" points="459.74 234.29 463.27 226.72 461.28 226.72 464.95 218.85 463.05 218.85 466.15 212.2 464.53 212.2 467.31 206.23 465.84 206.23 469.25 198.92 472.66 206.23 471.19 206.23 473.97 212.2 472.35 212.2 475.45 218.85 473.55 218.85 477.22 226.72 475.23 226.72 478.76 234.29 459.74 234.29"/><polygon class="o" points="575.48 237.82 579.87 228.43 577.39 228.43 581.95 218.66 579.59 218.66 583.43 210.41 581.42 210.41 584.88 203 583.05 203 587.28 193.93 591.51 203 589.69 203 593.14 210.41 591.13 210.41 594.98 218.66 592.62 218.66 597.17 228.43 594.7 228.43 599.08 237.82 575.48 237.82"/><polygon class="o" points="561.43 251.95 565.81 242.55 563.34 242.55 567.89 232.78 565.53 232.78 569.38 224.53 567.36 224.53 570.82 217.12 569 217.12 573.23 208.05 577.46 217.12 575.63 217.12 579.09 224.53 577.08 224.53 580.92 232.78 578.56 232.78 583.11 242.55 580.64 242.55 585.02 251.95 561.43 251.95"/><polygon class="o" points="495.97 248.32 499.78 240.13 497.79 240.13 501.21 232.79 499.4 232.79 503.6 223.8 507.79 232.79 505.98 232.79 509.41 240.13 507.41 240.13 511.23 248.32 495.97 248.32"/><polygon class="p" points="566.01 281.87 554.4 276.46 494.04 304.61 483.07 299.5 476.13 302.73 451.85 291.41 414.16 308.98 393.82 299.5 384.04 304.06 374.25 299.5 350.72 310.47 321.15 296.68 313.41 300.29 255.15 273.12 241.64 279.43 235.27 276.46 203.09 291.47 156.61 269.79 148.37 273.63 77.67 240.66 60.53 248.65 0 220.42 0 276.88 0 305.94 0 309.17 0 400.5 374.25 400.5 393.82 400.5 483.07 400.5 600 400.5 600 356.69 600 349.73 600 297.72 600 266.02 566.01 281.87"/><polygon class="p" points="179.86 296.43 174.02 283.89 177.05 283.89 172.11 273.3 174.7 273.3 170.26 263.8 172.6 263.8 167.17 252.16 161.75 263.8 164.09 263.8 159.65 273.3 162.23 273.3 157.29 283.89 160.33 283.89 154.49 296.43 179.86 296.43"/><polygon class="p" points="117.44 277.41 111.6 264.88 114.64 264.88 109.7 254.28 112.28 254.28 107.84 244.78 110.18 244.78 104.76 233.14 99.33 244.78 101.67 244.78 97.23 254.28 99.82 254.28 94.88 264.88 97.91 264.88 92.07 277.41 117.44 277.41"/><polygon class="p" points="302.64 304.76 296.79 292.23 299.83 292.23 294.89 281.64 297.47 281.64 293.04 272.13 295.38 272.13 289.95 260.49 284.52 272.13 286.86 272.13 282.43 281.64 285.01 281.64 280.07 292.23 283.11 292.23 277.26 304.76 302.64 304.76"/><polygon class="p" points="369.26 317.01 363.42 304.47 366.45 304.47 361.51 293.88 364.1 293.88 359.66 284.38 362 284.38 356.57 272.74 351.15 284.38 353.49 284.38 349.05 293.88 351.63 293.88 346.69 304.47 349.73 304.47 343.88 317.01 369.26 317.01"/><polygon class="p" points="442.26 308 437.6 298.02 440.02 298.02 436.09 289.59 438.14 289.59 434.61 282.02 436.48 282.02 432.15 272.76 427.83 282.02 429.7 282.02 426.17 289.59 428.22 289.59 424.29 298.02 426.71 298.02 422.05 308 442.26 308"/><polygon class="p" points="541.83 295.61 537.17 285.63 539.59 285.63 535.66 277.2 537.71 277.2 534.18 269.63 536.04 269.63 531.72 260.37 527.4 269.63 529.26 269.63 525.74 277.2 527.79 277.2 523.86 285.63 526.28 285.63 521.62 295.61 541.83 295.61"/><polygon class="p" points="599.18 294.83 592.24 279.94 595.85 279.94 589.98 267.36 593.05 267.36 587.78 256.07 590.56 256.07 584.11 242.25 577.67 256.07 580.45 256.07 575.18 267.36 578.25 267.36 572.38 279.94 575.99 279.94 569.04 294.83 599.18 294.83"/><polygon class="p" points="518.67 308.92 511.72 294.03 515.33 294.03 509.46 281.45 512.53 281.45 507.27 270.16 510.04 270.16 503.6 256.34 497.15 270.16 499.93 270.16 494.66 281.45 497.73 281.45 491.87 294.03 495.47 294.03 488.53 308.92 518.67 308.92"/><polygon class="p" points="391.81 308.92 384.87 294.03 388.47 294.03 382.61 281.45 385.68 281.45 380.41 270.16 383.19 270.16 376.74 256.34 370.3 270.16 373.07 270.16 367.81 281.45 370.88 281.45 365.01 294.03 368.62 294.03 361.67 308.92 391.81 308.92"/><polygon class="p" points="489.05 328.78 479.56 308.43 484.49 308.43 476.47 291.24 480.67 291.24 473.47 275.81 477.26 275.81 468.45 256.91 459.64 275.81 463.44 275.81 456.24 291.24 460.44 291.24 452.42 308.43 457.35 308.43 447.86 328.78 489.05 328.78"/><polygon class="p" points="312.74 312.5 308.09 302.52 310.5 302.52 306.57 294.08 308.63 294.08 305.1 286.52 306.96 286.52 302.64 277.25 298.32 286.52 300.18 286.52 296.65 294.08 298.71 294.08 294.77 302.52 297.19 302.52 292.54 312.5 312.74 312.5"/><polygon class="p" points="343.77 312.5 339.11 302.52 341.53 302.52 337.6 294.08 339.65 294.08 336.13 286.52 337.99 286.52 333.67 277.25 329.35 286.52 331.21 286.52 327.68 294.08 329.74 294.08 325.8 302.52 328.22 302.52 323.56 312.5 343.77 312.5"/><polygon class="p" points="413.03 324.36 408.38 314.38 410.79 314.38 406.86 305.95 408.92 305.95 405.39 298.38 407.25 298.38 402.93 289.12 398.61 298.38 400.47 298.38 396.94 305.95 399 305.95 395.07 314.38 397.48 314.38 392.83 324.36 413.03 324.36"/><polygon class="p" points="289.95 304.76 285.3 294.79 287.71 294.79 283.78 286.35 285.84 286.35 282.31 278.79 284.17 278.79 279.85 269.52 275.53 278.79 277.39 278.79 273.86 286.35 275.92 286.35 271.99 294.79 274.4 294.79 269.75 304.76 289.95 304.76"/><polygon class="p" points="276 297.85 271.35 287.87 273.76 287.87 269.83 279.44 271.89 279.44 268.36 271.87 270.22 271.87 265.9 262.6 261.58 271.87 263.44 271.87 259.91 279.44 261.97 279.44 258.04 287.87 260.45 287.87 255.8 297.85 276 297.85"/><polygon class="p" points="80.8 263.73 73.43 247.93 77.25 247.93 71.03 234.59 74.29 234.59 68.7 222.61 71.65 222.61 64.81 207.94 57.97 222.61 60.91 222.61 55.33 234.59 58.58 234.59 52.36 247.93 56.19 247.93 48.82 263.73 80.8 263.73"/><polygon class="p" points="157.01 281.61 149.65 265.81 153.47 265.81 147.25 252.47 150.5 252.47 144.92 240.49 147.86 240.49 141.02 225.82 134.18 240.49 137.13 240.49 131.54 252.47 134.8 252.47 128.58 265.81 132.4 265.81 125.03 281.61 157.01 281.61"/><polygon class="p" points="249.41 289.12 245.3 280.31 247.62 280.31 243.35 271.15 245.57 271.15 241.96 263.41 243.84 263.41 240.61 256.46 242.31 256.46 238.35 247.96 234.38 256.46 236.09 256.46 232.85 263.41 234.74 263.41 231.13 271.15 233.35 271.15 229.08 280.31 231.4 280.31 227.29 289.12 249.41 289.12"/><polygon class="p" points="136.89 274.3 132.78 265.49 135.1 265.49 130.83 256.32 133.05 256.32 129.44 248.59 131.33 248.59 128.09 241.64 129.8 241.64 125.83 233.14 121.86 241.64 123.57 241.64 120.33 248.59 122.22 248.59 118.61 256.32 120.83 256.32 116.56 265.49 118.88 265.49 114.77 274.3 136.89 274.3"/><polygon class="p" points="48.82 245.14 43.72 234.21 46.59 234.21 41.29 222.84 44.05 222.84 39.57 213.24 41.91 213.24 37.89 204.62 40.01 204.62 35.09 194.06 30.17 204.62 32.29 204.62 28.27 213.24 30.61 213.24 26.13 222.84 28.89 222.84 23.58 234.21 26.46 234.21 21.36 245.14 48.82 245.14"/><polygon class="p" points="204.16 292.25 199.72 282.73 202.05 282.73 198.06 274.19 200.16 274.19 195.28 263.73 190.41 274.19 192.51 274.19 188.52 282.73 190.84 282.73 186.41 292.25 204.16 292.25"/><polygon class="p" points="419.18 341.31 407.7 316.69 413.67 316.69 403.97 295.9 409.04 295.9 400.34 277.24 404.93 277.24 394.27 254.39 383.62 277.24 388.21 277.24 379.5 295.9 384.57 295.9 374.88 316.69 380.84 316.69 369.36 341.31 419.18 341.31"/><polygon class="p" points="344.65 351.46 333.17 326.85 339.13 326.85 329.44 306.06 334.51 306.06 325.8 287.39 330.39 287.39 319.74 264.54 309.08 287.39 313.67 287.39 304.97 306.06 310.04 306.06 300.34 326.85 306.31 326.85 294.83 351.46 344.65 351.46"/><polygon class="p" points="369.56 364.33 358.08 339.72 364.04 339.72 354.35 318.93 359.42 318.93 350.71 300.26 355.31 300.26 344.65 277.41 333.99 300.26 338.58 300.26 329.88 318.93 334.95 318.93 325.25 339.72 331.22 339.72 319.74 364.33 369.56 364.33"/><polygon class="p" points="299.73 339.07 288.25 314.46 294.21 314.46 284.51 293.67 289.59 293.67 280.88 275 285.47 275 274.82 252.15 264.16 275 268.75 275 260.05 293.67 265.12 293.67 255.42 314.46 261.38 314.46 249.91 339.07 299.73 339.07"/><polygon class="p" points="437.94 360.47 426.46 335.86 432.43 335.86 422.73 315.06 427.8 315.06 419.1 296.4 423.69 296.4 413.03 273.55 402.38 296.4 406.97 296.4 398.26 315.06 403.33 315.06 393.64 335.86 399.6 335.86 388.12 360.47 437.94 360.47"/><polygon class="p" points="478.05 352.38 466.58 327.76 472.54 327.76 462.84 306.97 467.91 306.97 459.21 288.31 463.8 288.31 453.14 265.46 442.49 288.31 447.08 288.31 438.37 306.97 443.45 306.97 433.75 327.76 439.71 327.76 428.23 352.38 478.05 352.38"/><polygon class="p" points="249.34 339.89 237.86 315.28 243.82 315.28 234.13 294.49 239.2 294.49 230.49 275.82 235.08 275.82 224.43 252.97 213.77 275.82 218.36 275.82 209.66 294.49 214.73 294.49 205.03 315.28 211 315.28 199.52 339.89 249.34 339.89"/><polygon class="p" points="231.08 351.46 219.6 326.85 225.56 326.85 215.86 306.06 220.93 306.06 212.23 287.39 216.82 287.39 206.16 264.54 195.51 287.39 200.1 287.39 191.4 306.06 196.47 306.06 186.77 326.85 192.73 326.85 181.25 351.46 231.08 351.46"/></svg>