<svg xmlns="http://www.w3.org/2000/svg" viewBox="0 0 251 324.62"><defs><style>.a{fill:none;}.b{fill:#fffef6;}</style></defs><title>Asset 28</title><path class="a" d="M191,152c.39-1.36,1.09-3.48,1.57-3.81-.19-.57-3.35-2.48-5-2.44a1,1,0,0,0-.64.42,13.31,13.31,0,0,0-1.3,3.06c-1.74-3.17-5.28-4.37-8.12-4.38-1.83,0-3.91,2.1-5.53,5.11-2.8,5.22-4.79,13.1-4.07,17.3.43,2.56,5.1,5.7,8.3,5.72,1,0,3.85-5.84,6.75-12.29-.41,2-1.29,7.5-1.08,8.78s4.06,3.7,6.12,4.09a3.49,3.49,0,0,1-.31-1c-.28-1.89.2-5.33.82-9.25A103.23,103.23,0,0,1,191,152Zm-16.32,17.66c-.31,0-.6-.38-.67-.8-1.08-5.53,3.64-20.62,7.6-20.59,1.46,0,2.37,1.43,3.06,2.85C182,158,176.21,169.62,174.66,169.61Z"/><path class="a" d="M118,169.11c.27,1.27,4,3.65,6.07,4-.82-1.42-.31-4.67.39-9.44A215.44,215.44,0,0,1,129.78,141c.43-1.36,1.09-3.48,1.57-3.81a9,9,0,0,0-4.79-2.29,1,1,0,0,0-.68.46,25.59,25.59,0,0,0-1.89,5c-.92,3-2.66,9.67-3.44,13.2C118.61,162.07,117.86,168.07,118,169.11Z"/><path class="a" d="M223.66,173.1c6.71,0,13-12.35,11.36-22-.3-1.75-3.48-5.78-6.32-5.79h-.27a6.93,6.93,0,0,0-2.37-.58c-6.45,0-13.08,12.15-11.59,20.89C215.24,170.12,219.79,173.07,223.66,173.1Zm4.78-25.89c.85,0,1.23,1.75,1.32,2.27.73,5.34-3.47,20.8-7.21,20.78-1.25,0-1.83-1.33-2-2.52C219.32,160.7,224.39,147.18,228.44,147.21Z"/><path class="a" d="M111.29,144.66a7.23,7.23,0,0,0-2.37-.58c-5.45,0-11,8.65-11.73,16.61-2.66,3.64-9.88,10.41-17.54,10.89-3.6.26-6.8-2.07-7.55-4.9-3.63-13,7.22-33.53,13.86-34,2.28-.13,3.54,1,3.91,2.38,1.1,3.31-.35,9.15-.79,11.51-.07.38,0,.8.39.71,3.26-.17,7.75-8.22,7-10.77s-6.19-6.83-12-6.44c-12.83.82-22.36,22.63-19.08,34.55,2.08,7.51,13,12,18.65,11.1,5.15-.84,10.6-7.17,13.25-11.3,0,.18,0,.35.07.52.76,4.49,5.31,7.44,9.18,7.46,6.72,0,13-12.34,11.36-22-.3-1.75-3.47-5.78-6.32-5.8Zm1.33,4.16c.73,5.34-3.48,20.8-7.21,20.78-1.25,0-1.83-1.33-2-2.51-1.2-7,3.87-20.56,7.92-20.54C112.14,146.55,112.53,148.3,112.62,148.82Z"/><path class="a" d="M216.79,141.43c.43-1.37,1.09-3.49,1.57-3.82a8.9,8.9,0,0,0-4.74-2.24,1,1,0,0,0-.68.47,24.49,24.49,0,0,0-1.89,5c-.57,1.88-1.52,5.18-2.28,8.29-1.77-3.08-5.25-4.23-8.05-4.24-1.83,0-3.91,2.1-5.53,5.11-2.8,5.22-4.79,13.1-4.07,17.3.43,2.56,5.1,5.7,8.3,5.71,1,0,3.85-5.83,6.75-12.28-.48,2.41-1.18,7.64-1,8.87s4,3.61,6.1,4c-.82-1.42-.21-4.63.39-9.44A210,210,0,0,1,216.79,141.43Zm-18.95,28.31c-.31,0-.6-.38-.67-.8-1.08-5.53,3.64-20.62,7.6-20.59,1.46,0,2.37,1.43,3.06,2.85C205.15,158.17,199.39,169.75,197.84,169.74Z"/><path class="a" d="M148.48,150.63c-.3-1.75-3.47-5.78-6.32-5.8h-.27a7.11,7.11,0,0,0-2.36-.58c-6.45,0-13.08,12.16-11.59,20.9.76,4.49,5.31,7.44,9.18,7.46C143.84,172.65,150.13,160.27,148.48,150.63ZM136,169.77c-1.24,0-1.82-1.33-2-2.51-1.2-7,3.87-20.56,7.92-20.54.84,0,1.23,1.75,1.32,2.27C144,154.33,139.75,169.79,136,169.77Z"/><polygon class="a" points="151.35 124.06 151.67 85 167.35 116.06 182.35 119.06 169.6 80 200.35 119.06 191.51 95 214.35 114.06 212.35 92.06 238.35 113.06 191.35 50.06 193.5 68 192.51 68 184.54 53 173.58 41 181.55 64 181.55 66 180.56 67 158.64 19 161.63 38 161.63 39 149.68 9 124.78 39 140.72 30 132.75 46 133.74 68 125.78 76 121.79 92 131.35 115.06 151.35 124.06"/><path class="a" d="M164.79,147.18c-.1,2.31,0,7.88.32,8.92a2,2,0,0,0,1.46.77c.18-.24,1.19-2.69,2.25-4.81,1-2,2-3.9,2.16-4.28-.36-1-4-3.52-6.43-3.53-1.78,0-7.47,9.07-8.94,14.54,1.13-5.61,2.63-10.89,3.28-11,0-.43-3.23-2.29-4.83-2.3-.31,0-.61.09-.7.33-2.5,4.9-5,20.41-4.65,22.54.22,1.28,3.7,3.7,5.77,4.09a3.18,3.18,0,0,1-.21-.71c-.36-2.08,1.19-7.35,2-9.57A47.63,47.63,0,0,1,164.79,147.18Z"/><path class="a" d="M22.34,176.31a2.74,2.74,0,0,1-.33-.93c-.52-3,1-14.32,2.5-22.87a42.08,42.08,0,0,0,10.81-3.57C45,144.06,48,137.13,46,133.22s-14.47-6.28-21.74-6.94l-.06.18a191.88,191.88,0,0,0-5.23,20L18.25,150l-.51,3c-1.2,6.74-2.46,15.5-1.87,19C16.31,173.27,20.47,176.25,22.34,176.31Zm3.25-29.45a142.36,142.36,0,0,1,4.82-17.61c3.62.38,6.44,1.33,8.08,3.62,2,2.92,0,9.91-7.43,14a24.39,24.39,0,0,1-6,2.3Z"/><polygon class="a" points="54.07 97 54.07 80 58.05 90 58.05 84 63.03 87 59.05 72 68.01 83 79.97 77 70 76 48.09 58 46.1 66 46.1 71 43.11 77 41.12 82 42.12 86 32.16 106 32.16 113 34.15 119 54.07 97"/><path class="a" d="M54.07,168.46c-1.18,7.56-2.8,15-5.26,20.07-.53-2.75-2.14-9.3-2.82-10.43a2.12,2.12,0,0,0-1.82-.49c-.14.32-.57,3.49-1.15,6.28-.55,2.61-1.17,5.18-1.19,5.65.68,1.13,5.36,3,8.05,2.38,1.22-.3,4.62-4.45,5.92-9.72,1.82-7.33,2.36-11.06,4-18.8,1-4.64,2.23-13.06,3.36-17.64-.16-.42-3.77-2.25-5-1.89-.91.28-9.82,24.95-11.26,25.08-.17,0-.31-.16-.4-.49-.66-3.46.76-12.81,1.5-17.22.24-1.42.72-3.64,1.15-4,.27-.17-5.06-2.9-5.64-1.54-2.3,5.57-3.55,20-3.14,22.06.6,2.54,5.55,5.21,8.66,4.82.55-.1,4.11-10.13,6.47-17.64-.22,2.64-.37,4.7-.49,6.4C54.64,164,54.35,166.68,54.07,168.46Z"/><path class="a" d="M236.08,182.32v55.11a10.73,10.73,0,0,1-5.34,9.26l-99.89,57.67a10.76,10.76,0,0,1-10.7,0L20.26,246.69a10.73,10.73,0,0,1-5.34-9.26V182.32H9.5v55.11a16.18,16.18,0,0,0,8.05,13.95l99.9,57.67a16.15,16.15,0,0,0,16.1,0l99.9-57.67a16.18,16.18,0,0,0,8.05-13.95V182.32Z"/><polygon class="a" points="82.94 99 88.92 95 84.93 103 94.89 95 111.35 108.06 105.85 87 100.87 90 109.83 76 101.87 81 114.81 56 62.35 108.06 82.94 99"/><path class="b" d="M141.91,146.72c-4,0-9.12,13.5-7.92,20.54.2,1.18.78,2.51,2,2.51,3.74,0,8-15.44,7.22-20.78C143.14,148.47,142.75,146.72,141.91,146.72Z"/><path class="b" d="M222.55,170.26c3.74,0,7.94-15.44,7.21-20.78-.09-.52-.47-2.27-1.32-2.27-4.05,0-9.12,13.49-7.92,20.53C220.72,168.93,221.3,170.25,222.55,170.26Z"/><path class="b" d="M103.38,167.09c.2,1.18.78,2.5,2,2.51,3.73,0,7.94-15.44,7.21-20.78-.09-.52-.48-2.27-1.32-2.27C107.25,146.53,102.18,160.05,103.38,167.09Z"/><path class="b" d="M181.59,148.22c-4,0-8.68,15.06-7.6,20.59.07.42.36.8.67.8,1.55,0,7.31-11.57,10-18.54C184,149.65,183.05,148.23,181.59,148.22Z"/><path class="b" d="M204.77,148.35c-4,0-8.68,15.06-7.6,20.59.07.42.36.8.67.8,1.55,0,7.31-11.57,10-18.54C207.14,149.78,206.23,148.36,204.77,148.35Z"/><path class="b" d="M38.49,132.87c-1.64-2.29-4.46-3.24-8.08-3.62a142.36,142.36,0,0,0-4.82,17.61l-.49,2.33a24.39,24.39,0,0,0,6-2.3C38.49,142.78,40.5,135.79,38.49,132.87Z"/><path class="b" d="M200.2,55l-5-5-2-1-1-2-6-3-6-2-2-1-4-3-3-4L150.4,0l-11,10-3,4-6,7-4,5-2,2-5,3-7,4-3,1-6,4-2,3-2,5-2,6-3,9-24.9,9L43.83,50l-9,18-2,3-4,2-3,1h-3L0,116V245.89a14.85,14.85,0,0,0,7.42,12.86l110.66,63.89a14.84,14.84,0,0,0,14.84,0l110.66-63.89A14.85,14.85,0,0,0,251,245.89V118ZM125.77,76l8-8-1-22,8-16-15.94,9,24.9-30,11.95,30V38l-3-19,21.92,48,1-1V64l-8-23,11,12,8,15h1l-2.15-17.94,47,63-26-21,2,22L191.51,95l8.84,24.06L169.6,80l12.75,39.06-15-3L151.67,85l-.32,39.06-20-9L121.79,92Zm85.53,97.64c-2.11-.39-5.88-2.72-6.1-4s.49-6.46,1-8.87c-2.9,6.45-5.77,12.29-6.75,12.28-3.2,0-7.87-3.15-8.3-5.71-.72-4.2,1.27-12.08,4.07-17.3,1.62-3,3.7-5.12,5.53-5.11,2.8,0,6.28,1.16,8.05,4.24.76-3.11,1.71-6.41,2.28-8.29a24.49,24.49,0,0,1,1.89-5,1,1,0,0,1,.68-.47,8.9,8.9,0,0,1,4.74,2.24c-.48.33-1.14,2.45-1.57,3.82a210,210,0,0,0-5.1,22.77C211.09,169,210.48,172.22,211.3,173.64Zm-21.87,74.57a2.69,2.69,0,0,1,0,.49c0,.63-.28,1.22-.94,1.22a1.77,1.77,0,0,1-.92-.3l-10.3-5.74L167,249.62a1.82,1.82,0,0,1-.91.3c-.67,0-1-.59-1-1.22a4.07,4.07,0,0,1,0-.49l2-12.17-8.35-8.61a2,2,0,0,1-.57-1.17c0-.73.71-1,1.28-1.12L171,223.36l5.16-11.07c.2-.46.59-1,1.12-1s.92.54,1.12,1l5.16,11.07,11.52,1.78c.55.1,1.28.39,1.28,1.12a1.89,1.89,0,0,1-.59,1.17L187.46,236Zm-35.16-76.45a3.18,3.18,0,0,0,.21.71c-2.07-.39-5.55-2.81-5.77-4.09-.36-2.13,2.15-17.64,4.65-22.54.09-.24.39-.33.7-.33,1.6,0,4.81,1.87,4.83,2.3-.65.09-2.15,5.37-3.28,11,1.47-5.47,7.16-14.55,8.94-14.54,2.45,0,6.07,2.49,6.43,3.53-.12.38-1.17,2.31-2.16,4.28-1.06,2.12-2.07,4.57-2.25,4.81a2,2,0,0,1-1.46-.77c-.36-1-.42-6.61-.32-8.92a47.63,47.63,0,0,0-8.55,15C155.46,164.41,153.91,169.68,154.27,171.76Zm-16.64,76.45a2.69,2.69,0,0,1,0,.49c0,.63-.28,1.22-.95,1.22a1.76,1.76,0,0,1-.91-.3l-10.3-5.74-10.3,5.74a1.85,1.85,0,0,1-.91.3c-.67,0-1-.59-1-1.22a2.72,2.72,0,0,1,.05-.49l2-12.17L107,227.43a2,2,0,0,1-.57-1.17c0-.73.71-1,1.28-1.12l11.52-1.78,5.16-11.07c.2-.46.59-1,1.12-1s.92.54,1.12,1l5.16,11.07,11.52,1.78c.55.1,1.28.39,1.28,1.12a1.85,1.85,0,0,1-.6,1.17L135.66,236Zm-.51-75.6c-3.87,0-8.42-3-9.18-7.46-1.49-8.74,5.14-20.93,11.59-20.9a7.11,7.11,0,0,1,2.36.58h.27c2.85,0,6,4,6.32,5.8C150.13,160.27,143.84,172.65,137.12,172.61Zm50.6-.14a3.49,3.49,0,0,0,.31,1c-2.06-.39-5.9-2.82-6.12-4.09s.67-6.8,1.08-8.78c-2.9,6.45-5.77,12.29-6.75,12.29-3.2,0-7.87-3.16-8.3-5.72-.72-4.2,1.27-12.08,4.07-17.3,1.62-3,3.7-5.13,5.53-5.11,2.84,0,6.38,1.21,8.12,4.38a13.31,13.31,0,0,1,1.3-3.06,1,1,0,0,1,.64-.42c1.6,0,4.76,1.87,5,2.44-.48.33-1.18,2.45-1.57,3.81a103.23,103.23,0,0,0-2.44,11.27C187.92,167.14,187.44,170.58,187.72,172.47Zm38.34-27.73a6.93,6.93,0,0,1,2.37.58h.27c2.84,0,6,4,6.32,5.79,1.64,9.64-4.65,22-11.36,22-3.87,0-8.42-3-9.19-7.47C213,156.89,219.61,144.7,226.06,144.74Zm-105.51,8.89c.78-3.53,2.52-10.23,3.44-13.2a25.59,25.59,0,0,1,1.89-5,1,1,0,0,1,.68-.46,9,9,0,0,1,4.79,2.29c-.48.33-1.14,2.45-1.57,3.81a215.44,215.44,0,0,0-5.29,22.68c-.7,4.77-1.21,8-.39,9.44-2.11-.39-5.8-2.77-6.07-4C117.86,168.07,118.61,162.07,120.55,153.63Zm-2.68-3.17c1.65,9.64-4.64,22-11.36,22-3.87,0-8.42-3-9.18-7.46,0-.17,0-.34-.07-.52-2.65,4.13-8.1,10.46-13.25,11.3-5.67.91-16.57-3.59-18.65-11.1-3.28-11.92,6.25-33.73,19.08-34.55,5.85-.39,11.23,3.79,12,6.44s-3.75,10.6-7,10.77c-.43.09-.46-.33-.39-.71.44-2.36,1.89-8.2.79-11.51-.37-1.42-1.63-2.51-3.91-2.38-6.64.43-17.49,21-13.86,34,.75,2.83,4,5.16,7.55,4.9,7.66-.48,14.88-7.25,17.54-10.89.71-8,6.28-16.64,11.73-16.61a7.23,7.23,0,0,1,2.37.58h.26C114.4,144.68,117.57,148.71,117.87,150.46Zm-32,97.75a4,4,0,0,1,0,.49c0,.63-.27,1.22-.94,1.22a1.76,1.76,0,0,1-.91-.3l-10.3-5.74-10.3,5.74a1.86,1.86,0,0,1-.92.3c-.66,0-1-.59-1-1.22a2.72,2.72,0,0,1,0-.49l2-12.17-8.35-8.61a2,2,0,0,1-.57-1.17c0-.73.71-1,1.28-1.12l11.52-1.78,5.16-11.07c.2-.46.59-1,1.12-1s.92.54,1.12,1L80,223.36l11.52,1.78c.55.1,1.28.39,1.28,1.12a1.85,1.85,0,0,1-.6,1.17L83.86,236ZM49,172.56c-3.11.39-8.06-2.28-8.66-4.82-.41-2,.84-16.49,3.14-22.06.58-1.36,5.91,1.37,5.64,1.54-.43.38-.91,2.6-1.15,4-.74,4.41-2.16,13.76-1.5,17.22.09.33.23.51.4.49,1.44-.13,10.35-24.8,11.26-25.08,1.24-.36,4.85,1.47,5,1.89-1.13,4.58-2.38,13-3.36,17.64-1.64,7.74-2.18,11.47-4,18.8-1.3,5.27-4.7,9.42-5.92,9.72-2.69.66-7.37-1.25-8.05-2.38,0-.47.64-3,1.19-5.65.58-2.79,1-6,1.15-6.28a2.12,2.12,0,0,1,1.82.49c.68,1.13,2.29,7.68,2.82,10.43,2.46-5.07,4.08-12.51,5.26-20.07.28-1.78.57-4.48.93-7.14.12-1.7.27-3.76.49-6.4C53.13,162.43,49.57,172.46,49,172.56ZM114.81,56,101.87,81l8-5-9,14,5-3,5.5,21.06L94.89,95l-10,8,4-8-6,4-20.59,9.06ZM32.16,106l10-20-1-4,2-5,3-6V66l2-8L70,76l10,1L68,83l-9-11,4,15-5-3v6l-4-10V97L34.15,119l-2-6ZM17.74,153l.51-3,.74-3.52a191.88,191.88,0,0,1,5.23-20l.06-.18c7.27.66,19.72,2.94,21.74,6.94s-1,10.84-10.7,15.72a42.08,42.08,0,0,1-10.81,3.57c-1.48,8.55-3,19.85-2.5,22.87a2.74,2.74,0,0,0,.33.93c-1.87-.06-6-3-6.47-4.34C15.28,168.49,16.54,159.73,17.74,153Zm215.71,98.39-99.9,57.67a16.15,16.15,0,0,1-16.1,0l-99.9-57.67a16.18,16.18,0,0,1-8-13.95V182.32h5.42v55.11a10.73,10.73,0,0,0,5.34,9.26l99.89,57.67a10.76,10.76,0,0,0,10.7,0l99.89-57.67a10.73,10.73,0,0,0,5.34-9.26V182.32h5.42v55.11A16.18,16.18,0,0,1,233.45,251.38Z"/></svg>