<svg xmlns="http://www.w3.org/2000/svg" viewBox="0 0 766.67 148.42">
    <defs>
        <style>.a{fill:#fffff6;}</style>
    </defs>
    <path class="a" d="M72.28,141.26a43.36,43.36,0,0,1-7,3.09,64.32,64.32,0,0,1-7.94,2.23c-2.71.58-5.4,1-8,1.36a62.46,62.46,0,0,1-7.46.48q-11.45,0-19.48-3.68a33.13,33.13,0,0,1-13-10.27,42.73,42.73,0,0,1-7.17-15.6A82.1,82.1,0,0,1,0,99.21,61.39,61.39,0,0,1,2.62,80.8a39.7,39.7,0,0,1,7.84-14.34,34.15,34.15,0,0,1,13.08-9.2,48.39,48.39,0,0,1,18.32-3.2,90.91,90.91,0,0,1,13.85,1.16,69.74,69.74,0,0,1,13.66,3.49l1,1.36v6c0,.9-.39,1.35-1.16,1.35a14.3,14.3,0,0,1-3.49-1c-1.81-.64-4-1.39-6.49-2.23A76.27,76.27,0,0,0,50.87,62a43,43,0,0,0-9-1,35.71,35.71,0,0,0-15,2.91,30.19,30.19,0,0,0-10.56,8A32.35,32.35,0,0,0,10,84,55,55,0,0,0,8,99.21a68,68,0,0,0,1.84,16,39.4,39.4,0,0,0,5.91,13.47A30.25,30.25,0,0,0,26.16,138q6.4,3.49,15.7,3.49a43.16,43.16,0,0,0,10.75-1.36,78,78,0,0,0,9.49-3q4.17-1.65,6.79-3a22.09,22.09,0,0,1,2.81-1.35c1.16.52,1.67,1.58,1.55,3.2s-.2,2.93-.2,4Z"/><path class="a" d="M159.28,147.26h-4.46l-1.55-1.55-.2-17.83a37.47,37.47,0,0,1-13.56,15.21,36.82,36.82,0,0,1-19.95,5.33,35.71,35.71,0,0,1-15-2.9,27.05,27.05,0,0,1-10.27-8.05,33.26,33.26,0,0,1-5.81-12.11,58.14,58.14,0,0,1-1.85-14.92q0-26.73.59-53.48l1.55-1.54h5c.64.13,1.09.64,1.35,1.54l-.58,53.48a52.6,52.6,0,0,0,1.26,11.73,28.41,28.41,0,0,0,4.26,9.88,21.5,21.5,0,0,0,7.75,6.88,24.82,24.82,0,0,0,11.73,2.52,31.8,31.8,0,0,0,12.69-2.62,33.47,33.47,0,0,0,10.56-7.07A35.11,35.11,0,0,0,150,121.3a30.84,30.84,0,0,0,2.71-12.79q0-13,.1-25.77T152.88,57l1.36-1.54h5L160.83,57v88.75Z"/><path class="a" d="M241,143a32.07,32.07,0,0,1-10.17,4.07,48.79,48.79,0,0,1-10.76,1.35,27.21,27.21,0,0,1-11.52-2.13,17.48,17.48,0,0,1-7.17-5.91,23.84,23.84,0,0,1-3.68-9.1,60,60,0,0,1-1.07-11.73V65.68H183.3l-1.74-1.54V59.87l1.55-1.54h13.37c.26-4.53.41-9.08.48-13.67s.16-9.13.29-13.66l1.55-1.54h3.87L204.42,31V58.33h32.75l1.74,1.54v4.27l-1.55,1.54H204.42v53.87a45.75,45.75,0,0,0,.68,7.85,21.71,21.71,0,0,0,2.42,7.07,14.16,14.16,0,0,0,4.75,5,13.87,13.87,0,0,0,7.65,1.94,23.58,23.58,0,0,0,7.08-1.07,51,51,0,0,0,6.1-2.32c1.81-.84,3.35-1.62,4.65-2.33a7.2,7.2,0,0,1,2.71-1.06c.52,0,.87.32,1.06,1a9.81,9.81,0,0,1,.39,2.14,12.84,12.84,0,0,1,0,2.32q-.09,1.17-.09,1.74Z"/><path class="a" d="M304.4,143a32.17,32.17,0,0,1-10.17,4.07,48.72,48.72,0,0,1-10.76,1.35A27.18,27.18,0,0,1,272,146.29a17.57,17.57,0,0,1-7.18-5.91,24,24,0,0,1-3.67-9.1A59.22,59.22,0,0,1,260,119.55V65.68H246.66l-1.74-1.54V59.87l1.55-1.54h13.37q.38-6.8.48-13.67T260.61,31l1.55-1.54H266L267.78,31V58.33h32.75l1.74,1.54v4.27l-1.55,1.54H267.78v53.87a46.78,46.78,0,0,0,.68,7.85,21.71,21.71,0,0,0,2.42,7.07,14.14,14.14,0,0,0,4.74,5,13.93,13.93,0,0,0,7.66,1.94,23.42,23.42,0,0,0,7.07-1.07,50.58,50.58,0,0,0,6.11-2.32c1.81-.84,3.35-1.62,4.65-2.33a7.2,7.2,0,0,1,2.71-1.06c.52,0,.87.32,1.06,1a9.81,9.81,0,0,1,.39,2.14,12.84,12.84,0,0,1,0,2.32q-.09,1.17-.09,1.74Z"/><path class="a" d="M366.6,144.74a20,20,0,0,1-6.88,2.81,35,35,0,0,1-7.46.87q-10.27,0-16.08-4.65A27.8,27.8,0,0,1,327.55,132a55,55,0,0,1-3.48-15.88q-.69-8.73-.68-16.67V1.55L324.74,0h5l1.55,1.55q0,24.62-.1,48.93t-.09,48.92q0,5.63.39,12.88A59,59,0,0,0,333.85,126a26.51,26.51,0,0,0,6.2,11q4.26,4.45,12.21,4.46a19.51,19.51,0,0,0,5.91-.78,15,15,0,0,0,4-1.84c1-.7,1.87-1.32,2.52-1.84a2.93,2.93,0,0,1,1.36-.77c1,.38,1.51,1.42,1.45,3.1s-.1,3-.1,4.07Z"/><path class="a" d="M453.4,100q-16.66.58-33.13,1.07t-33.13.48a61.16,61.16,0,0,0,1.93,15.79,35.59,35.59,0,0,0,6,12.6,28.79,28.79,0,0,0,10.46,8.43,35.38,35.38,0,0,0,15.51,3.1,38.08,38.08,0,0,0,10.17-1.36,81.24,81.24,0,0,0,9-3q4.06-1.65,6.68-3a14.88,14.88,0,0,1,3-1.35c.52,0,.88.32,1.07,1a10.92,10.92,0,0,1,.39,2.13,15,15,0,0,1,0,2.32c-.07.78-.1,1.36-.1,1.75l-.77,1.36a37.79,37.79,0,0,1-6.69,3.09,63.51,63.51,0,0,1-7.65,2.23c-2.59.58-5.17,1-7.75,1.36a60.1,60.1,0,0,1-7.36.48q-12,0-20.06-3.68a32.25,32.25,0,0,1-12.88-10.27,42.27,42.27,0,0,1-7-15.79A90.75,90.75,0,0,1,379,98.24a56.08,56.08,0,0,1,2.71-17.83,39,39,0,0,1,7.94-14,36.62,36.62,0,0,1,13-9.11,45.31,45.31,0,0,1,17.82-3.29q10.08,0,16.77,3.68a28.35,28.35,0,0,1,10.55,9.88,42.81,42.81,0,0,1,5.53,14.15A82.51,82.51,0,0,1,455,98.43ZM445,81.28A34.44,34.44,0,0,0,440.13,71a23.15,23.15,0,0,0-19.67-10A35.11,35.11,0,0,0,407,63.55a31.75,31.75,0,0,0-10.47,6.89A30.41,30.41,0,0,0,389.75,81a39.07,39.07,0,0,0-2.61,13.37h5.62q13.56,0,27-.29t27-1.26A46.68,46.68,0,0,0,445,81.28Z"/><path class="a" d="M528,136a22,22,0,0,1-7.17,7.27,30.38,30.38,0,0,1-10,4,53.55,53.55,0,0,1-11.14,1.16,80.36,80.36,0,0,1-12.4-1.06,54,54,0,0,1-12-3.2l-1-1.16v-6.4c0-1,.45-1.55,1.35-1.55,2.46.91,4.52,1.75,6.21,2.52s3.32,1.46,4.93,2a29.5,29.5,0,0,0,5.43,1.36,50.2,50.2,0,0,0,7.85.49,37.91,37.91,0,0,0,7.94-.87,24.69,24.69,0,0,0,7.36-2.81,15.61,15.61,0,0,0,5.33-5.14,14.31,14.31,0,0,0,2-7.85,14,14,0,0,0-3.58-10,32.63,32.63,0,0,0-8.92-6.49,123.45,123.45,0,0,0-11.63-5.13A61.24,61.24,0,0,1,487,97.27a32.28,32.28,0,0,1-8.92-8.62c-2.38-3.42-3.58-7.92-3.58-13.47A18.94,18.94,0,0,1,477,65.3a19.84,19.84,0,0,1,6.29-6.59,26.23,26.23,0,0,1,8.82-3.58,47.21,47.21,0,0,1,10-1.07,102,102,0,0,1,12.3.77,74.9,74.9,0,0,1,12.11,2.52l1.16,1.36v5.62a2.35,2.35,0,0,1-.29,1c-.19.38-.42.58-.68.58a15.68,15.68,0,0,1-3.78-.77q-2.61-.78-6-1.66t-7.27-1.64A39,39,0,0,0,502,61a36.69,36.69,0,0,0-7,.68,20,20,0,0,0-6.3,2.33,13.37,13.37,0,0,0-4.55,4.36,12.33,12.33,0,0,0-1.75,6.78q0,6.39,3.59,10.27A32.83,32.83,0,0,0,495,92.14a119.21,119.21,0,0,0,11.62,5.32,70.32,70.32,0,0,1,11.62,5.91,31.27,31.27,0,0,1,8.92,8.53q3.58,5.13,3.58,13.27A20.48,20.48,0,0,1,528,136Z"/><path class="a" d="M633.31,119.94a42.25,42.25,0,0,1-7.85,15,36,36,0,0,1-13.27,9.88,46.09,46.09,0,0,1-18.9,3.58,46.71,46.71,0,0,1-19-3.58A37.61,37.61,0,0,1,560.74,135a40.74,40.74,0,0,1-8-15,65.94,65.94,0,0,1-2.61-19,71.84,71.84,0,0,1,2.42-19.47,38.16,38.16,0,0,1,7.65-14.73,34.31,34.31,0,0,1,13.37-9.4q8.15-3.29,19.57-3.29t19.57,3.29a33.38,33.38,0,0,1,13.27,9.4,38.67,38.67,0,0,1,7.56,14.82A72.61,72.61,0,0,1,635.92,101,65.94,65.94,0,0,1,633.31,119.94ZM626,85.16a35.56,35.56,0,0,0-6.1-12.69A28,28,0,0,0,609.18,64a38.12,38.12,0,0,0-15.89-3,38.82,38.82,0,0,0-16,3,29.08,29.08,0,0,0-10.95,8.33,34.87,34.87,0,0,0-6.29,12.7A59.22,59.22,0,0,0,558,101a55.54,55.54,0,0,0,2.13,15.5,37.45,37.45,0,0,0,6.49,12.89,31.91,31.91,0,0,0,11,8.81,38.05,38.05,0,0,0,31,0,30.91,30.91,0,0,0,10.85-8.81,36.94,36.94,0,0,0,6.3-12.89,57.83,57.83,0,0,0,2-15.5H628A60.83,60.83,0,0,0,626,85.16Z"/><path class="a" d="M703.55,16.47a17.91,17.91,0,0,0-7.27-3.68,31.57,31.57,0,0,0-8-1.16,21.86,21.86,0,0,0-9.59,1.84,15.14,15.14,0,0,0-6,5.13,22.3,22.3,0,0,0-3.2,7.65,44.73,44.73,0,0,0-1,9.6V58.33H701l1.74,1.54v4.27l-1.55,1.54H668.67v80l-1.55,1.55h-4.84l-1.55-1.55v-80H648.91l-1.75-1.54V59.87l1.55-1.54h12q0-8.92-.3-18.41a59.21,59.21,0,0,1,1.85-17.34,25.64,25.64,0,0,1,7.85-12.89q5.7-5,17.92-5a63.91,63.91,0,0,1,8.72.68,27,27,0,0,1,8.33,2.42l1,1.36V15.5Z"/><path class="a" d="M765.75,143a32.13,32.13,0,0,1-10.18,4.07,48.63,48.63,0,0,1-10.75,1.35,27.26,27.26,0,0,1-11.53-2.13,17.54,17.54,0,0,1-7.17-5.91,24.16,24.16,0,0,1-3.68-9.1,60,60,0,0,1-1.06-11.73V65.68H708l-1.74-1.54V59.87l1.54-1.54h13.37q.39-6.8.49-13.67T722,31l1.55-1.54h3.87L729.13,31V58.33h32.74l1.75,1.54v4.27l-1.55,1.54H729.13v53.87a45.75,45.75,0,0,0,.68,7.85,21.25,21.25,0,0,0,2.42,7.07,14.14,14.14,0,0,0,4.74,5,13.91,13.91,0,0,0,7.66,1.94,23.47,23.47,0,0,0,7.07-1.07,50.4,50.4,0,0,0,6.1-2.32q2.72-1.26,4.65-2.33a7.23,7.23,0,0,1,2.72-1.06c.51,0,.87.32,1.06,1a11.17,11.17,0,0,1,.39,2.14,15,15,0,0,1,0,2.32c-.07.78-.1,1.36-.1,1.74Z"/>
</svg>